<?xml version="1.0" encoding="UTF-8" standalone="no"?>
<svg
   id="svg3148"
   viewBox="0 0 150 150"
   version="1.1"
   sodipodi:docname="icon.svg"
   width="150"
   height="150"
   xml:space="preserve"
   inkscape:version="1.2.2 (b0a8486541, 2022-12-01)"
   inkscape:export-filename="icon.png"
   inkscape:export-xdpi="40.959999"
   inkscape:export-ydpi="40.959999"
   xmlns:inkscape="http://www.inkscape.org/namespaces/inkscape"
   xmlns:sodipodi="http://sodipodi.sourceforge.net/DTD/sodipodi-0.dtd"
   xmlns:xlink="http://www.w3.org/1999/xlink"
   xmlns="http://www.w3.org/2000/svg"
   xmlns:svg="http://www.w3.org/2000/svg"
   xmlns:rdf="http://www.w3.org/1999/02/22-rdf-syntax-ns#"
   xmlns:cc="http://creativecommons.org/ns#"
   xmlns:dc="http://purl.org/dc/elements/1.1/"><sodipodi:namedview
     id="namedview50"
     pagecolor="#ffffff"
     bordercolor="#666666"
     borderopacity="1.0"
     inkscape:showpageshadow="2"
     inkscape:pageopacity="0.0"
     inkscape:pagecheckerboard="0"
     inkscape:deskcolor="#d1d1d1"
     showgrid="false"
     inkscape:zoom="1.5055771"
     inkscape:cx="173.02336"
     inkscape:cy="114.90611"
     inkscape:window-width="1920"
     inkscape:window-height="1017"
     inkscape:window-x="-8"
     inkscape:window-y="-8"
     inkscape:window-maximized="1"
     inkscape:current-layer="svg3148" /><title
     id="title3261">Stylized Basic Cloud</title><defs
     id="defs3150"><linearGradient
       id="linearGradient6712"
       y2="-431.97"
       gradientUnits="userSpaceOnUse"
       x2="285.03"
       y1="-441.04999"
       x1="271.01999"><stop
         id="stop6472"
         stop-color="#fff"
         offset="0" /><stop
         id="stop6474"
         stop-color="#fff"
         stop-opacity="0"
         offset="1" /></linearGradient><linearGradient
       id="linearGradient6714"
       y2="-436.32001"
       gradientUnits="userSpaceOnUse"
       x2="289.67999"
       y1="-439.75"
       x1="287.51999"><stop
         id="stop6499"
         stop-color="#fff"
         offset="0" /><stop
         id="stop6501"
         stop-color="#fff"
         stop-opacity="0"
         offset="1" /></linearGradient><linearGradient
       id="linearGradient6716"
       y2="-436.14001"
       gradientUnits="userSpaceOnUse"
       x2="289.85001"
       y1="-441.29001"
       x1="286.51001"><stop
         id="stop6515"
         stop-color="#fff"
         offset="0" /><stop
         id="stop6517"
         stop-color="#fff"
         stop-opacity="0"
         offset="1" /></linearGradient><linearGradient
       id="linearGradient6718"
       y2="-436.44"
       xlink:href="#linearGradient6538"
       gradientUnits="userSpaceOnUse"
       x2="289.39001"
       y1="-439.94"
       x1="285.94" /><linearGradient
       id="linearGradient6538"><stop
         id="stop6540"
         stop-color="#fff"
         offset="0" /><stop
         id="stop6542"
         stop-color="#fff"
         stop-opacity="0"
         offset="1" /></linearGradient><linearGradient
       id="linearGradient6720"
       y2="-431.92001"
       gradientUnits="userSpaceOnUse"
       x2="279.98001"
       y1="-437.10999"
       x1="275.94"><stop
         id="stop6530"
         stop-color="#fff"
         offset="0" /><stop
         id="stop6532"
         stop-color="#fff"
         stop-opacity="0"
         offset="1" /></linearGradient><linearGradient
       id="linearGradient6722"
       y2="-436.70999"
       gradientUnits="userSpaceOnUse"
       x2="289.76999"
       y1="-439.48001"
       x1="286.67001"><stop
         id="stop6551"
         stop-color="#fff"
         offset="0" /><stop
         id="stop6553"
         stop-color="#fff"
         stop-opacity="0"
         offset="1" /></linearGradient><linearGradient
       id="linearGradient6724"
       y2="-436.82999"
       xlink:href="#linearGradient6538"
       gradientUnits="userSpaceOnUse"
       x2="288.89999"
       y1="-441.23001"
       x1="284.79999" /></defs><g
     id="layer1"
     transform="translate(-145.5,-465.7474)"><g
       id="g6668"
       transform="matrix(5.1724,0,0,5.1724,-1230.4,2772.5)"><path
         id="path6670"
         d="m 280.5,-445.5 c -2.2708,0 -4.1099,1.5503 -4.7188,3.625 -0.69323,-0.36383 -1.4445,-0.625 -2.2812,-0.625 -2.76,0 -5,2.24 -5,5 0,0.57893 0.16252,1.1077 0.34375,1.625 -1.3735,0.77074 -2.3438,2.189 -2.3438,3.875 0,2.484 2.016,4.5 4.5,4.5 h 19 c 2.484,0 4.5,-2.016 4.5,-4.5 0,-1.686 -0.97028,-3.1043 -2.3438,-3.875 0.18124,-0.51729 0.34375,-1.0461 0.34375,-1.625 0,-2.76 -2.24,-5 -5,-5 -0.83674,0 -1.588,0.26117 -2.2812,0.625 -0.60884,-2.0747 -2.4479,-3.625 -4.7188,-3.625 z"
         stroke="#888a85"
         stroke-miterlimit="2"
         fill="#c4c5c2" /><path
         id="path6672"
         d="m 280.5,-445 c -2.1897,0 -3.7236,1.3358 -4.3956,3.8435 -0.66846,-0.34362 -1.5476,-0.83335 -2.3544,-0.83335 -2.7165,0 -4.7551,1.9388 -4.7551,4.5455 0,0.54677 0.26721,1.3334 0.44196,1.822 -1.3244,0.72795 -2.4368,1.8905 -2.4368,3.3726 0,2.346 1.5462,4.2501 4.3393,4.2501 h 18.321 c 2.771,0 4.3393,-1.904 4.3393,-4.2501 0,-1.5924 -1.1124,-2.6667 -2.4368,-3.3946 0.17476,-0.48856 0.46407,-1.2532 0.46407,-1.7999 0,-2.6067 -2.1158,-4.5676 -4.7772,-4.5676 -0.80687,0 -1.6418,0.48974 -2.3103,0.83336 -0.65,-2.42 -2.25,-3.82 -4.44,-3.82 z"
         fill="url(#linearGradient6712)"
         style="fill:url(#linearGradient6712)" /><g
         id="g6674"><path
           id="path6676"
           d="m 291.69,-437.59 c 0,1.8294 -1.4831,3.3125 -3.3125,3.3125 -1.8294,0 -3.3125,-1.4831 -3.3125,-3.3125 0,-1.8294 1.4831,-3.3125 3.3125,-3.3125 1.8294,0 3.3125,1.4831 3.3125,3.3125 z"
           fill="#c4c5c2"
           transform="matrix(1.0566,0,0,1.0566,-24.198,21.863)" /><path
           id="path6678"
           d="m 291.69,-437.59 c 0,1.8294 -1.4831,3.3125 -3.3125,3.3125 -1.8294,0 -3.3125,-1.4831 -3.3125,-3.3125 0,-1.8294 1.4831,-3.3125 3.3125,-3.3125 1.8294,0 3.3125,1.4831 3.3125,3.3125 z"
           fill="url(#linearGradient6714)"
           transform="matrix(1.0566,0,0,1.0566,-24.198,21.863)"
           style="fill:url(#linearGradient6714)" /></g><rect
         id="rect6680"
         height="9"
         width="20"
         y="-438"
         x="271"
         fill="#c4c5c2" /><path
         id="path6682"
         d="m 291.69,-437.59 c 0,1.8294 -1.4831,3.3125 -3.3125,3.3125 -1.8294,0 -3.3125,-1.4831 -3.3125,-3.3125 0,-1.8294 1.4831,-3.3125 3.3125,-3.3125 1.8294,0 3.3125,1.4831 3.3125,3.3125 z"
         fill="#c4c5c2"
         transform="matrix(0.90566,0,0,0.90566,9.8302,-35.689)" /><g
         id="g6684"><path
           id="path6686"
           d="m 291.69,-437.59 c 0,1.8294 -1.4831,3.3125 -3.3125,3.3125 -1.8294,0 -3.3125,-1.4831 -3.3125,-3.3125 0,-1.8294 1.4831,-3.3125 3.3125,-3.3125 1.8294,0 3.3125,1.4831 3.3125,3.3125 z"
           fill="#c4c5c2"
           transform="matrix(1.0566,0,0,1.0566,-17.198,24.863)" /><path
           id="path6688"
           d="m 291.69,-437.59 c 0,1.8294 -1.4831,3.3125 -3.3125,3.3125 -1.8294,0 -3.3125,-1.4831 -3.3125,-3.3125 0,-1.8294 1.4831,-3.3125 3.3125,-3.3125 1.8294,0 3.3125,1.4831 3.3125,3.3125 z"
           fill="url(#linearGradient6716)"
           transform="matrix(1.0566,0,0,1.0566,-17.198,24.863)"
           style="fill:url(#linearGradient6716)" /></g><g
         id="g6690"><path
           id="path6692"
           d="m 291.69,-437.59 c 0,1.8294 -1.4831,3.3125 -3.3125,3.3125 -1.8294,0 -3.3125,-1.4831 -3.3125,-3.3125 0,-1.8294 1.4831,-3.3125 3.3125,-3.3125 1.8294,0 3.3125,1.4831 3.3125,3.3125 z"
           fill="#c4c5c2"
           transform="matrix(1.0566,0,0,1.0566,-31.198,24.863)" /><path
           id="path6694"
           d="m 291.69,-437.59 c 0,1.8294 -1.4831,3.3125 -3.3125,3.3125 -1.8294,0 -3.3125,-1.4831 -3.3125,-3.3125 0,-1.8294 1.4831,-3.3125 3.3125,-3.3125 1.8294,0 3.3125,1.4831 3.3125,3.3125 z"
           fill="url(#linearGradient6718)"
           transform="matrix(1.0566,0,0,1.0566,-31.198,24.863)"
           style="fill:url(#linearGradient6718)" /></g><g
         id="g6696"
         transform="translate(-1)"><path
           id="path6698"
           d="m 280.47,-440.97 c -3.5794,0 -6.4688,2.9206 -6.4688,6.5 0,2.3707 1.3494,4.3378 3.25,5.4688 h 6.4688 c 1.9006,-1.131 3.25,-3.1293 3.25,-5.5 0,-3.5794 -2.9206,-6.4688 -6.5,-6.4688 z"
           fill="#c4c5c2" /><path
           id="path6700"
           d="m 280.5,-441 c -3.588,0 -6.5,2.912 -6.5,6.5 0,2.3764 1.3448,4.3663 3.25,5.5 h 6.5 c 1.9052,-1.1337 3.25,-3.1236 3.25,-5.5 0,-3.588 -2.912,-6.5 -6.5,-6.5 z"
           fill="url(#linearGradient6720)"
           style="fill:url(#linearGradient6720)" /></g><path
         id="path6702"
         d="m 291.69,-437.59 c 0,1.8294 -1.4831,3.3125 -3.3125,3.3125 -1.8294,0 -3.3125,-1.4831 -3.3125,-3.3125 0,-1.8294 1.4831,-3.3125 3.3125,-3.3125 1.8294,0 3.3125,1.4831 3.3125,3.3125 z"
         fill="url(#linearGradient6722)"
         transform="matrix(0.90566,0,0,0.90566,9.8303,-35.689)"
         style="fill:url(#linearGradient6722)" /><path
         id="path6704"
         d="m 292.96,-437.33 c -0.002,2.6846 -3.2693,3.714 -3.2693,3.714 0,0 2.3487,-1.626 2.3368,-3.705 l 0.93241,-0.009 z"
         fill="#888a85"
         fill-rule="evenodd" /><g
         id="g6706"
         transform="matrix(1.1429,0,0,1.1429,-28.571,67)"><path
           id="path6708"
           d="m 291.69,-437.59 c 0,1.8294 -1.4831,3.3125 -3.3125,3.3125 -1.8294,0 -3.3125,-1.4831 -3.3125,-3.3125 0,-1.8294 1.4831,-3.3125 3.3125,-3.3125 1.8294,0 3.3125,1.4831 3.3125,3.3125 z"
           fill="#c4c5c2"
           transform="matrix(1.0566,0,0,1.0566,-31.198,24.863)" /><path
           id="path6710"
           d="m 291.69,-437.59 c 0,1.8294 -1.4831,3.3125 -3.3125,3.3125 -1.8294,0 -3.3125,-1.4831 -3.3125,-3.3125 0,-1.8294 1.4831,-3.3125 3.3125,-3.3125 1.8294,0 3.3125,1.4831 3.3125,3.3125 z"
           fill="url(#linearGradient6724)"
           transform="matrix(1.0566,0,0,1.0566,-31.198,24.863)"
           style="fill:url(#linearGradient6724)" /></g></g></g><metadata
     id="metadata47"><rdf:RDF><cc:Work><dc:format>image/svg+xml</dc:format><dc:type
           rdf:resource="http://purl.org/dc/dcmitype/StillImage" /><cc:license
           rdf:resource="http://creativecommons.org/publicdomain/zero/1.0/" /><dc:publisher><cc:Agent
             rdf:about="http://openclipart.org/"><dc:title>Openclipart</dc:title></cc:Agent></dc:publisher><dc:title>Stylized Basic Cloud</dc:title><dc:date>2013-06-30T13:11:03</dc:date><dc:description>A simple stylized cloud to represent weather, cloud computing or the Internet.</dc:description><dc:source>https://openclipart.org/detail/179894/stylized-basic-cloud-by-gr8dan-179894</dc:source><dc:creator><cc:Agent><dc:title>GR8DAN</dc:title></cc:Agent></dc:creator><dc:subject><rdf:Bag><rdf:li>basic</rdf:li><rdf:li>cloud</rdf:li><rdf:li>grey</rdf:li><rdf:li>simple</rdf:li><rdf:li>sky</rdf:li><rdf:li>stylized</rdf:li><rdf:li>weather</rdf:li></rdf:Bag></dc:subject></cc:Work><cc:License
         rdf:about="http://creativecommons.org/publicdomain/zero/1.0/"><cc:permits
           rdf:resource="http://creativecommons.org/ns#Reproduction" /><cc:permits
           rdf:resource="http://creativecommons.org/ns#Distribution" /><cc:permits
           rdf:resource="http://creativecommons.org/ns#DerivativeWorks" /></cc:License></rdf:RDF></metadata><g
     id="Document"
     font-size="16px"
     transform="matrix(0.23064054,0,0,-0.23064054,6.8399544,84.893866)"
     stroke="#000000"
     font-family="'Times New Roman'"
     fill="none"><g
       id="Spread"
       transform="translate(0,-300)"><g
         id="Layer 1"><g
           id="Group"
           stroke="none"
           stroke-miterlimit="79.84"><g
             id="Group_1"><path
               stroke-linejoin="miter"
               d="m 157.58,264.21 c 65.49,0 118.64,-53.15 118.64,-118.64 C 276.22,80.085 223.07,26.93 157.58,26.93 92.094,26.934 38.94,80.085 38.94,145.57 c 0.003,65.49 53.154,118.64 118.64,118.64 z"
               stroke-width="8"
               fill="#ffffff"
               id="path548" /><path
               d="m 157.58,18.753 c -70.006,0 -126.82,56.812 -126.82,126.82 0.003,70.01 56.814,126.82 126.82,126.82 70,0 126.82,-56.81 126.82,-126.82 0,-70.005 -56.82,-126.82 -126.82,-126.82 z m 0,16.361 c 60.97,0 110.46,49.488 110.46,110.46 0,60.97 -49.49,110.46 -110.46,110.46 -60.969,0 -110.46,-49.49 -110.46,-110.46 0.003,-60.968 49.491,-110.46 110.46,-110.46 z"
               fill-rule="evenodd"
               stroke-width="0.5"
               fill="#000000"
               id="path550" /><g
               id="Group_2"
               stroke-linejoin="miter"
               stroke-width="0.5"><path
                 d="m 200.39,196.72 c 26.81,0 48.57,-21.76 48.57,-48.56 0,-26.81 -21.76,-48.565 -48.57,-48.565 -26.8,0 -48.56,21.755 -48.56,48.565 0,26.8 21.76,48.56 48.56,48.56 z"
                 fill="#000000"
                 id="path552" /><g
                 id="Group_3"
                 fill="#ffffff"><path
                   d="m 221.62,175.92 c -6.82,0 -12.36,-5.54 -12.36,-12.37 0,-6.82 5.54,-12.36 12.36,-12.36 6.82,0 12.36,5.54 12.36,12.36 0,6.83 -5.54,12.37 -12.36,12.37 z"
                   id="path554" /></g></g></g><g
             id="Group_4"><path
               stroke-linejoin="miter"
               d="m 433.47,263.17 c 65.49,0 118.64,-53.15 118.64,-118.63 C 552.11,79.048 498.96,25.9 433.47,25.9 367.99,25.897 314.84,79.048 314.84,144.54 c 0,65.48 53.15,118.63 118.63,118.63 z"
               stroke-width="8"
               fill="#ffffff"
               id="path559" /><path
               d="m 433.47,17.716 c -70,0 -126.81,56.812 -126.81,126.82 0,70 56.81,126.81 126.81,126.81 70.01,0 126.82,-56.81 126.82,-126.81 0,-70.012 -56.81,-126.82 -126.82,-126.82 z m 0,16.361 c 60.97,0 110.46,49.488 110.46,110.46 0,60.96 -49.49,110.45 -110.46,110.45 -60.97,0 -110.45,-49.49 -110.45,-110.45 0,-60.975 49.48,-110.46 110.45,-110.46 z"
               fill-rule="evenodd"
               stroke-width="0.5"
               fill="#000000"
               id="path561" /><g
               id="Group_5"
               stroke-linejoin="miter"
               stroke-width="0.5"><path
                 d="m 476.28,195.69 c 26.81,0 48.57,-21.76 48.57,-48.57 0,-26.8 -21.76,-48.562 -48.57,-48.562 -26.8,0 -48.56,21.762 -48.56,48.562 0,26.81 21.76,48.57 48.56,48.57 z"
                 fill="#000000"
                 id="path563" /><g
                 id="Group_6"
                 fill="#ffffff"><path
                   d="m 497.51,174.88 c -6.82,0 -12.36,-5.54 -12.36,-12.36 0,-6.83 5.54,-12.37 12.36,-12.37 6.83,0 12.37,5.54 12.37,12.37 0,6.82 -5.54,12.36 -12.37,12.36 z"
                   id="path565" /></g></g></g></g></g></g></g></svg>
